<?xml version='1.0' encoding='utf-8'?>
<svg xmlns="http://www.w3.org/2000/svg" version="2.0" width="2200" height="1000">
  <line x1="100" y1="100" x2="100" y2="500" stroke="white" stroke-width="2" />
  <line x1="100" y1="500" x2="700" y2="500" stroke="white" stroke-width="2" />
  <text x="40" y="105" font-family="Arial" font-size="14" style="fill:white">292m</text>
  <text x="40" y="505" font-family="Arial" font-size="14" style="fill:white">281m</text>
  <text x="360.0" y="540" font-family="Arial" font-size="16" style="fill:white">Distancia</text>
  <polyline points="100.0,453.5307014374566 113.95348837209302,490.9458572660857 127.90697674418604,500.0 141.86046511627907,498.2844388053628 155.81395348837208,490.94968078716005 169.7674418604651,468.3144375481113 183.72093023255815,471.7086567005874 197.67441860465118,455.2908201052669 211.62790697674419,422.4833745960467 225.5813953488372,422.48221663890973 239.53488372093022,422.48264302696293 253.48837209302326,433.6910693982387 267.4418604651163,490.81983486023955 281.3953488372093,451.70893677482326 295.34883720930236,403.3386541529692 309.30232558139534,318.51284827936644 323.25581395348837,117.96342206928381 337.2093023255814,131.6920527359389 351.1627906976744,100.0 365.1162790697674,137.94910512731423 379.06976744186045,227.96951092610783 393.0232558139535,277.64968897324843 406.9767441860465,308.70131686532153 420.93023255813955,349.2319293582014 434.8837209302326,404.32216717159974 448.83720930232556,398.7060038078654 462.7906976744186,416.77964142784674 476.74418604651163,405.13084623151656 490.69767441860466,365.4203475470583 504.6511627906977,345.62083216432103 518.6046511627907,325.42593682243523 532.5581395348837,362.3395146456555 546.5116279069767,365.75824993811534 560.4651162790698,389.23279382230896 574.4186046511628,365.7502880183764 588.3720930232557,301.8452482752002 602.3255813953488,334.1162863552311 616.2790697674419,383.57470685305304 630.2325581395348,410.3910351592614 644.1860465116279,422.48001280855283 658.1395348837209,431.6276705903815 672.0930232558139,422.47953480977304 686.046511627907,405.4559663648008 700.0,453.5307014374566" stroke="red" stroke-width="4" fill="none" />
</svg>